<?xml version="1.0" encoding="utf-8"?>
<!-- Generator: Adobe Illustrator 23.0.3, SVG Export Plug-In . SVG Version: 6.00 Build 0)  -->
<svg version="1.1" xmlns="http://www.w3.org/2000/svg" xmlns:xlink="http://www.w3.org/1999/xlink" x="0px" y="0px"
	 viewBox="0 0 2425 1282" style="enable-background:new 0 0 2425 1282;" xml:space="preserve">
<style type="text/css">
	.st0{display:none;opacity:0.39;}
	.st1{display:inline;fill:none;stroke:#000000;stroke-width:15;stroke-miterlimit:10;}
	.st2{fill:none;stroke:#000000;stroke-width:15;stroke-miterlimit:10;}
	.st3{fill:#020202;}
	.st4{enable-background:new    ;}
	.st5{clip-path:url(#SVGID_2_);}
	.st6{clip-path:url(#SVGID_4_);}
	.st7{clip-path:url(#SVGID_6_);}
	.st8{clip-path:url(#SVGID_8_);}
	.st9{clip-path:url(#SVGID_10_);}
	.st10{clip-path:url(#SVGID_12_);}
	.st11{clip-path:url(#SVGID_14_);}
	.st12{clip-path:url(#SVGID_16_);}
	.st13{clip-path:url(#SVGID_18_);}
	.st14{clip-path:url(#SVGID_20_);}
	.st15{clip-path:url(#SVGID_22_);}
	.st16{clip-path:url(#SVGID_24_);}
	.st17{clip-path:url(#SVGID_26_);}
	.st18{clip-path:url(#SVGID_28_);}
	.st19{clip-path:url(#SVGID_30_);}
	.st20{clip-path:url(#SVGID_32_);}
	.st21{clip-path:url(#SVGID_34_);}
	.st22{clip-path:url(#SVGID_36_);}
	.st23{clip-path:url(#SVGID_38_);}
	.st24{clip-path:url(#SVGID_40_);}
	.st25{clip-path:url(#SVGID_42_);}
	.st26{clip-path:url(#SVGID_44_);}
	.st27{clip-path:url(#SVGID_46_);}
	.st28{clip-path:url(#SVGID_48_);}
	.st29{clip-path:url(#SVGID_50_);}
	.st30{clip-path:url(#SVGID_52_);}
	.st31{clip-path:url(#SVGID_54_);}
	.st32{clip-path:url(#SVGID_56_);}
	.st33{clip-path:url(#SVGID_58_);}
	.st34{clip-path:url(#SVGID_60_);}
	.st35{clip-path:url(#SVGID_62_);}
	.st36{clip-path:url(#SVGID_64_);}
	.st37{clip-path:url(#SVGID_66_);}
	.st38{clip-path:url(#SVGID_68_);}
	.st39{clip-path:url(#SVGID_70_);}
	.st40{clip-path:url(#SVGID_72_);}
	.st41{clip-path:url(#SVGID_74_);}
	.st42{clip-path:url(#SVGID_76_);}
	.st43{clip-path:url(#SVGID_78_);}
	.st44{clip-path:url(#SVGID_80_);}
</style>
<g id="Capa_2" class="st0">
	<rect x="7.5" y="7.5" class="st1" width="2410" height="1267"/>
	<line class="st1" x1="7.5" y1="1063.33" x2="2417.5" y2="1063.33"/>
	<line class="st1" x1="7.5" y1="852.17" x2="2417.5" y2="852.17"/>
	<line class="st1" x1="7.5" y1="641" x2="2417.5" y2="641"/>
	<line class="st1" x1="7.5" y1="429.83" x2="2417.5" y2="429.83"/>
	<line class="st1" x1="7.5" y1="218.67" x2="2417.5" y2="218.67"/>
	<line class="st1" x1="2015.83" y1="7.5" x2="2015.83" y2="1274.5"/>
	<line class="st1" x1="1614.17" y1="7.5" x2="1614.17" y2="1274.5"/>
	<line class="st1" x1="1212.5" y1="7.5" x2="1212.5" y2="1274.5"/>
	<line class="st1" x1="810.83" y1="7.5" x2="810.83" y2="1274.5"/>
	<line class="st1" x1="409.17" y1="7.5" x2="409.17" y2="1274.5"/>
</g>
<g id="Capa_1">
	<g>
		<path class="st2" d="M328.22,210.36c-82.06,0-164.12,0-246.18,0C67.56,268.53,53.08,326.7,38.6,384.86c111.02,0,222.04,0,333.07,0
			C357.18,326.7,342.7,268.53,328.22,210.36z"/>
	</g>
	<rect x="77.89" y="194.32" class="st3" width="254.48" height="15.9"/>
	<rect x="83.28" y="42.5" class="st2" width="243.69" height="146.83"/>
	<g>
		<g>
			<g class="st4">
				<defs>
					<rect id="SVGID_1_" x="423" y="212.03" class="st4" width="352.26" height="145.16"/>
				</defs>
				<clipPath id="SVGID_2_">
					<use xlink:href="#SVGID_1_"  style="overflow:visible;"/>
				</clipPath>
				<g class="st5">
					<g>
						<g>
							<g>
								<path d="M442.19,345.7l39.71-122.18h234.46l39.71,122.18H442.19 M728.08,212.03h-257.9L423,357.2h352.26L728.08,212.03"/>
							</g>
						</g>
					</g>
				</g>
			</g>
		</g>
	</g>
	<rect x="471.89" y="195.32" class="st3" width="254.48" height="15.9"/>
	<rect x="477.28" y="43.5" class="st2" width="243.69" height="146.83"/>
	<g>
		<g>
			<g class="st4">
				<defs>
					<rect id="SVGID_3_" x="838" y="212.01" class="st4" width="352.26" height="111.2"/>
				</defs>
				<clipPath id="SVGID_4_">
					<use xlink:href="#SVGID_3_"  style="overflow:visible;"/>
				</clipPath>
				<g class="st6">
					<g>
						<g>
							<g>
								<g>
									<defs>
										<polyline id="SVGID_5_" points="838,323.21 838,212.01 1190.26,212.01 1190.26,323.21 838,323.21 										"/>
									</defs>
									<clipPath id="SVGID_6_">
										<use xlink:href="#SVGID_5_"  style="overflow:visible;"/>
									</clipPath>
									<path class="st7" d="M857.19,314.41l39.71-93.6h234.46l39.71,93.6H857.19 M1143.08,212.01H885.18L838,323.21h352.26
										L1143.08,212.01"/>
								</g>
							</g>
						</g>
					</g>
				</g>
			</g>
		</g>
	</g>
	<rect x="886.89" y="195.32" class="st3" width="254.48" height="15.9"/>
	<rect x="892.28" y="43.5" class="st2" width="243.69" height="146.83"/>
	<g>
		<g>
			<g class="st4">
				<defs>
					<rect id="SVGID_7_" x="1237" y="212.03" class="st4" width="352.26" height="85.18"/>
				</defs>
				<clipPath id="SVGID_8_">
					<use xlink:href="#SVGID_7_"  style="overflow:visible;"/>
				</clipPath>
				<g class="st8">
					<g>
						<g>
							<g>
								<g>
									<defs>
										<polyline id="SVGID_9_" points="1237,297.21 1237,212.03 1589.26,212.03 1589.26,297.21 1237,297.21 										"/>
									</defs>
									<clipPath id="SVGID_10_">
										<use xlink:href="#SVGID_9_"  style="overflow:visible;"/>
									</clipPath>
									<g class="st9">
										<defs>
											<polyline id="SVGID_11_" points="1237,297.21 1237,212.03 1589.26,212.03 1589.26,297.21 1237,297.21 											"/>
										</defs>
										<clipPath id="SVGID_12_">
											<use xlink:href="#SVGID_11_"  style="overflow:visible;"/>
										</clipPath>
										<path class="st10" d="M1256.19,290.46l39.71-71.7h234.46l39.71,71.7H1256.19 M1542.08,212.03h-257.9L1237,297.21h352.26
											L1542.08,212.03"/>
									</g>
								</g>
							</g>
						</g>
					</g>
				</g>
			</g>
		</g>
	</g>
	<rect x="1285.89" y="194.32" class="st3" width="254.48" height="15.9"/>
	<rect x="1291.28" y="42.5" class="st2" width="243.69" height="146.83"/>
	<g>
		<g>
			<g class="st4">
				<defs>
					<rect id="SVGID_13_" x="1639" y="211.98" class="st4" width="352.26" height="65.26"/>
				</defs>
				<clipPath id="SVGID_14_">
					<use xlink:href="#SVGID_13_"  style="overflow:visible;"/>
				</clipPath>
				<g class="st11">
					<g>
						<g>
							<g>
								<g>
									<defs>
										<polyline id="SVGID_15_" points="1639,277.24 1639,211.98 1991.26,211.98 1991.26,277.24 1639,277.24 										"/>
									</defs>
									<clipPath id="SVGID_16_">
										<use xlink:href="#SVGID_15_"  style="overflow:visible;"/>
									</clipPath>
									<g class="st12">
										<defs>
											<polyline id="SVGID_17_" points="1639,277.24 1639,211.98 1991.26,211.98 1991.26,277.24 1639,277.24 											"/>
										</defs>
										<clipPath id="SVGID_18_">
											<use xlink:href="#SVGID_17_"  style="overflow:visible;"/>
										</clipPath>
										<g class="st13">
											<defs>
												<polyline id="SVGID_19_" points="1639,277.24 1639,211.98 1991.26,211.98 1991.26,277.24 1639,277.24 												"/>
											</defs>
											<clipPath id="SVGID_20_">
												<use xlink:href="#SVGID_19_"  style="overflow:visible;"/>
											</clipPath>
											<path class="st14" d="M1658.19,272.08l39.71-54.93h234.46l39.71,54.93H1658.19 M1944.08,211.98h-257.9L1639,277.24
												h352.26L1944.08,211.98"/>
										</g>
									</g>
								</g>
							</g>
						</g>
					</g>
				</g>
			</g>
		</g>
	</g>
	<rect x="1687.89" y="194.32" class="st3" width="254.48" height="15.9"/>
	<rect x="1693.28" y="42.5" class="st2" width="243.69" height="146.83"/>
	<g>
		<g>
			<g class="st4">
				<defs>
					<rect id="SVGID_21_" x="20" y="635.46" class="st4" width="352.26" height="38.31"/>
				</defs>
				<clipPath id="SVGID_22_">
					<use xlink:href="#SVGID_21_"  style="overflow:visible;"/>
				</clipPath>
				<g class="st15">
					<g>
						<g>
							<g>
								<g>
									<defs>
										<polyline id="SVGID_23_" points="20,673.77 20,635.46 372.26,635.46 372.26,673.77 20,673.77 										"/>
									</defs>
									<clipPath id="SVGID_24_">
										<use xlink:href="#SVGID_23_"  style="overflow:visible;"/>
									</clipPath>
									<g class="st16">
										<defs>
											<polyline id="SVGID_25_" points="20,673.77 20,635.46 372.26,635.46 372.26,673.77 20,673.77 											"/>
										</defs>
										<clipPath id="SVGID_26_">
											<use xlink:href="#SVGID_25_"  style="overflow:visible;"/>
										</clipPath>
										<g class="st17">
											<defs>
												<polyline id="SVGID_27_" points="20,673.77 20,635.46 372.26,635.46 372.26,673.77 20,673.77 												"/>
											</defs>
											<clipPath id="SVGID_28_">
												<use xlink:href="#SVGID_27_"  style="overflow:visible;"/>
											</clipPath>
											<g class="st18">
												<defs>
													<polyline id="SVGID_29_" points="20,673.77 20,635.46 372.26,635.46 372.26,673.77 20,673.77 													"/>
												</defs>
												<clipPath id="SVGID_30_">
													<use xlink:href="#SVGID_29_"  style="overflow:visible;"/>
												</clipPath>
												<g class="st19">
													<defs>
														<polyline id="SVGID_31_" points="20,673.77 20,635.46 372.26,635.46 372.26,673.77 20,673.77 														"/>
													</defs>
													<clipPath id="SVGID_32_">
														<use xlink:href="#SVGID_31_"  style="overflow:visible;"/>
													</clipPath>
													<path class="st20" d="M39.19,670.73L78.9,638.5h234.46l39.71,32.22H39.19 M325.08,635.46H67.17L20,673.77h352.26
														L325.08,635.46"/>
												</g>
											</g>
										</g>
									</g>
								</g>
							</g>
						</g>
					</g>
				</g>
			</g>
		</g>
	</g>
	<rect x="68.89" y="616.32" class="st3" width="254.48" height="15.9"/>
	<rect x="74.28" y="464.5" class="st2" width="243.69" height="146.83"/>
	<g>
		<g>
			<g class="st4">
				<defs>
					<rect id="SVGID_33_" x="434" y="635.94" class="st4" width="352.26" height="29.34"/>
				</defs>
				<clipPath id="SVGID_34_">
					<use xlink:href="#SVGID_33_"  style="overflow:visible;"/>
				</clipPath>
				<g class="st21">
					<g>
						<g>
							<g>
								<g>
									<defs>
										<polyline id="SVGID_35_" points="434,665.28 434,635.94 786.26,635.94 786.26,665.28 434,665.28 										"/>
									</defs>
									<clipPath id="SVGID_36_">
										<use xlink:href="#SVGID_35_"  style="overflow:visible;"/>
									</clipPath>
									<g class="st22">
										<defs>
											<polyline id="SVGID_37_" points="434,665.28 434,635.94 786.26,635.94 786.26,665.28 434,665.28 											"/>
										</defs>
										<clipPath id="SVGID_38_">
											<use xlink:href="#SVGID_37_"  style="overflow:visible;"/>
										</clipPath>
										<g class="st23">
											<defs>
												<polyline id="SVGID_39_" points="434,665.28 434,635.94 786.26,635.94 786.26,665.28 434,665.28 												"/>
											</defs>
											<clipPath id="SVGID_40_">
												<use xlink:href="#SVGID_39_"  style="overflow:visible;"/>
											</clipPath>
											<g class="st24">
												<defs>
													<polyline id="SVGID_41_" points="434,665.28 434,635.94 786.26,635.94 786.26,665.28 434,665.28 													"/>
												</defs>
												<clipPath id="SVGID_42_">
													<use xlink:href="#SVGID_41_"  style="overflow:visible;"/>
												</clipPath>
												<g class="st25">
													<defs>
														<polyline id="SVGID_43_" points="434,665.28 434,635.94 786.26,635.94 786.26,665.28 434,665.28 														"/>
													</defs>
													<clipPath id="SVGID_44_">
														<use xlink:href="#SVGID_43_"  style="overflow:visible;"/>
													</clipPath>
													<g class="st26">
														<defs>
															<polyline id="SVGID_45_" points="434,665.28 434,635.94 786.26,635.94 786.26,665.28 434,665.28 															"/>
														</defs>
														<clipPath id="SVGID_46_">
															<use xlink:href="#SVGID_45_"  style="overflow:visible;"/>
														</clipPath>
														<path class="st27" d="M453.19,662.96l39.71-24.69h234.46l39.71,24.69H453.19 M739.08,635.94h-257.9L434,665.28h352.26
															L739.08,635.94"/>
													</g>
												</g>
											</g>
										</g>
									</g>
								</g>
							</g>
						</g>
					</g>
				</g>
			</g>
		</g>
	</g>
	<rect x="482.89" y="616.32" class="st3" width="254.48" height="15.9"/>
	<rect x="488.28" y="464.5" class="st2" width="243.69" height="146.83"/>
	<g>
		<g>
			<g class="st4">
				<defs>
					<rect id="SVGID_47_" x="830" y="635.38" class="st4" width="352.26" height="22.48"/>
				</defs>
				<clipPath id="SVGID_48_">
					<use xlink:href="#SVGID_47_"  style="overflow:visible;"/>
				</clipPath>
				<g class="st28">
					<g>
						<g>
							<g>
								<g>
									<defs>
										<polyline id="SVGID_49_" points="830,657.85 830,635.38 1182.26,635.38 1182.26,657.85 830,657.85 										"/>
									</defs>
									<clipPath id="SVGID_50_">
										<use xlink:href="#SVGID_49_"  style="overflow:visible;"/>
									</clipPath>
									<g class="st29">
										<defs>
											<polyline id="SVGID_51_" points="830,657.85 830,635.38 1182.26,635.38 1182.26,657.85 830,657.85 											"/>
										</defs>
										<clipPath id="SVGID_52_">
											<use xlink:href="#SVGID_51_"  style="overflow:visible;"/>
										</clipPath>
										<g class="st30">
											<defs>
												<polyline id="SVGID_53_" points="830,657.85 830,635.38 1182.26,635.38 1182.26,657.85 830,657.85 												"/>
											</defs>
											<clipPath id="SVGID_54_">
												<use xlink:href="#SVGID_53_"  style="overflow:visible;"/>
											</clipPath>
											<g class="st31">
												<defs>
													<polyline id="SVGID_55_" points="830,657.85 830,635.38 1182.26,635.38 1182.26,657.85 830,657.85 													"/>
												</defs>
												<clipPath id="SVGID_56_">
													<use xlink:href="#SVGID_55_"  style="overflow:visible;"/>
												</clipPath>
												<g class="st32">
													<defs>
														<polyline id="SVGID_57_" points="830,657.85 830,635.38 1182.26,635.38 1182.26,657.85 830,657.85 														"/>
													</defs>
													<clipPath id="SVGID_58_">
														<use xlink:href="#SVGID_57_"  style="overflow:visible;"/>
													</clipPath>
													<g class="st33">
														<defs>
															<polyline id="SVGID_59_" points="830,657.85 830,635.38 1182.26,635.38 1182.26,657.85 830,657.85 															
																"/>
														</defs>
														<clipPath id="SVGID_60_">
															<use xlink:href="#SVGID_59_"  style="overflow:visible;"/>
														</clipPath>
														<g class="st34">
															<defs>
																<polyline id="SVGID_61_" points="830,657.85 830,635.38 1182.26,635.38 1182.26,657.85 830,657.85 																
																	"/>
															</defs>
															<clipPath id="SVGID_62_">
																<use xlink:href="#SVGID_61_"  style="overflow:visible;"/>
															</clipPath>
															<path class="st35" d="M849.19,656.07l39.71-18.9h234.46l39.71,18.9H849.19 M1135.08,635.38h-257.9L830,657.85h352.26
																L1135.08,635.38"/>
														</g>
													</g>
												</g>
											</g>
										</g>
									</g>
								</g>
							</g>
						</g>
					</g>
				</g>
			</g>
		</g>
	</g>
	<rect x="878.89" y="618.32" class="st3" width="254.48" height="15.9"/>
	<rect x="884.28" y="466.5" class="st2" width="243.69" height="146.83"/>
	<g>
		<g>
			<g class="st4">
				<defs>
					<rect id="SVGID_63_" x="1243" y="638" class="st4" width="352.26" height="17.22"/>
				</defs>
				<clipPath id="SVGID_64_">
					<use xlink:href="#SVGID_63_"  style="overflow:visible;"/>
				</clipPath>
				<g class="st36">
					<g>
						<g>
							<g>
								<g>
									<defs>
										<polyline id="SVGID_65_" points="1243,655.22 1243,638 1595.26,638 1595.26,655.22 1243,655.22 										"/>
									</defs>
									<clipPath id="SVGID_66_">
										<use xlink:href="#SVGID_65_"  style="overflow:visible;"/>
									</clipPath>
									<g class="st37">
										<defs>
											<polyline id="SVGID_67_" points="1243,655.22 1243,638 1595.26,638 1595.26,655.22 1243,655.22 											"/>
										</defs>
										<clipPath id="SVGID_68_">
											<use xlink:href="#SVGID_67_"  style="overflow:visible;"/>
										</clipPath>
										<g class="st38">
											<defs>
												<polyline id="SVGID_69_" points="1243,655.22 1243,638 1595.26,638 1595.26,655.22 1243,655.22 												"/>
											</defs>
											<clipPath id="SVGID_70_">
												<use xlink:href="#SVGID_69_"  style="overflow:visible;"/>
											</clipPath>
											<g class="st39">
												<defs>
													<polyline id="SVGID_71_" points="1243,655.22 1243,638 1595.26,638 1595.26,655.22 1243,655.22 													"/>
												</defs>
												<clipPath id="SVGID_72_">
													<use xlink:href="#SVGID_71_"  style="overflow:visible;"/>
												</clipPath>
												<g class="st40">
													<defs>
														<polyline id="SVGID_73_" points="1243,655.22 1243,638 1595.26,638 1595.26,655.22 1243,655.22 														"/>
													</defs>
													<clipPath id="SVGID_74_">
														<use xlink:href="#SVGID_73_"  style="overflow:visible;"/>
													</clipPath>
													<g class="st41">
														<defs>
															<polyline id="SVGID_75_" points="1243,655.22 1243,638 1595.26,638 1595.26,655.22 1243,655.22 															"/>
														</defs>
														<clipPath id="SVGID_76_">
															<use xlink:href="#SVGID_75_"  style="overflow:visible;"/>
														</clipPath>
														<g class="st42">
															<defs>
																<polyline id="SVGID_77_" points="1243,655.22 1243,638 1595.26,638 1595.26,655.22 1243,655.22 																"/>
															</defs>
															<clipPath id="SVGID_78_">
																<use xlink:href="#SVGID_77_"  style="overflow:visible;"/>
															</clipPath>
															<g class="st43">
																<defs>
																	<polyline id="SVGID_79_" points="1243,655.22 1243,638 1595.26,638 1595.26,655.22 1243,655.22 																	
																		"/>
																</defs>
																<clipPath id="SVGID_80_">
																	<use xlink:href="#SVGID_79_"  style="overflow:visible;"/>
																</clipPath>
																<path class="st44" d="M1262.19,653.86l39.71-14.49h234.46l39.71,14.49H1262.19 M1548.08,638h-257.9L1243,655.22
																	h352.26L1548.08,638"/>
															</g>
														</g>
													</g>
												</g>
											</g>
										</g>
									</g>
								</g>
							</g>
						</g>
					</g>
				</g>
			</g>
		</g>
	</g>
	<rect x="1291.89" y="618.32" class="st3" width="254.48" height="15.9"/>
	<rect x="1297.28" y="466.5" class="st2" width="243.69" height="146.83"/>
</g>
</svg>
