<?xml version="1.0" encoding="utf-8"?>
<!-- Generator: Adobe Illustrator 22.0.1, SVG Export Plug-In . SVG Version: 6.00 Build 0)  -->
<svg version="1.1" xmlns="http://www.w3.org/2000/svg" xmlns:xlink="http://www.w3.org/1999/xlink" x="0px" y="0px"
	 viewBox="0 0 2425 1282" style="enable-background:new 0 0 2425 1282;" xml:space="preserve">
<style type="text/css">
	.st0{display:none;opacity:0.39;}
	.st1{display:inline;fill:none;stroke:#000000;stroke-width:15;stroke-miterlimit:10;}
	.st2{fill:none;stroke:#000000;stroke-width:15;stroke-miterlimit:10;}
	.st3{fill:#020202;}
	.st4{enable-background:new    ;}
	.st5{clip-path:url(#SVGID_2_);}
	.st6{clip-path:url(#SVGID_4_);}
	.st7{clip-path:url(#SVGID_6_);}
	.st8{clip-path:url(#SVGID_8_);}
	.st9{clip-path:url(#SVGID_10_);}
	.st10{clip-path:url(#SVGID_12_);}
	.st11{clip-path:url(#SVGID_14_);}
	.st12{clip-path:url(#SVGID_16_);}
	.st13{clip-path:url(#SVGID_18_);}
	.st14{clip-path:url(#SVGID_20_);}
	.st15{clip-path:url(#SVGID_22_);}
	.st16{clip-path:url(#SVGID_24_);}
	.st17{clip-path:url(#SVGID_26_);}
	.st18{clip-path:url(#SVGID_28_);}
	.st19{clip-path:url(#SVGID_30_);}
	.st20{clip-path:url(#SVGID_32_);}
	.st21{clip-path:url(#SVGID_34_);}
	.st22{clip-path:url(#SVGID_36_);}
	.st23{clip-path:url(#SVGID_38_);}
	.st24{clip-path:url(#SVGID_40_);}
	.st25{clip-path:url(#SVGID_42_);}
	.st26{clip-path:url(#SVGID_44_);}
	.st27{clip-path:url(#SVGID_46_);}
	.st28{clip-path:url(#SVGID_48_);}
	.st29{clip-path:url(#SVGID_50_);}
	.st30{clip-path:url(#SVGID_52_);}
	.st31{clip-path:url(#SVGID_54_);}
	.st32{clip-path:url(#SVGID_56_);}
	.st33{clip-path:url(#SVGID_58_);}
	.st34{clip-path:url(#SVGID_60_);}
	.st35{clip-path:url(#SVGID_62_);}
	.st36{clip-path:url(#SVGID_64_);}
	.st37{clip-path:url(#SVGID_66_);}
	.st38{clip-path:url(#SVGID_68_);}
	.st39{clip-path:url(#SVGID_70_);}
	.st40{clip-path:url(#SVGID_72_);}
	.st41{clip-path:url(#SVGID_74_);}
	.st42{clip-path:url(#SVGID_76_);}
	.st43{clip-path:url(#SVGID_78_);}
	.st44{clip-path:url(#SVGID_80_);}
</style>
<g id="Capa_2" class="st0">
	<rect x="7.5" y="7.5" class="st1" width="2410" height="1267"/>
	<line class="st1" x1="7.5" y1="1063.3" x2="2417.5" y2="1063.3"/>
	<line class="st1" x1="7.5" y1="852.2" x2="2417.5" y2="852.2"/>
	<line class="st1" x1="7.5" y1="641" x2="2417.5" y2="641"/>
	<line class="st1" x1="7.5" y1="429.8" x2="2417.5" y2="429.8"/>
	<line class="st1" x1="7.5" y1="218.7" x2="2417.5" y2="218.7"/>
	<line class="st1" x1="2015.8" y1="7.5" x2="2015.8" y2="1274.5"/>
	<line class="st1" x1="1614.2" y1="7.5" x2="1614.2" y2="1274.5"/>
	<line class="st1" x1="1212.5" y1="7.5" x2="1212.5" y2="1274.5"/>
	<line class="st1" x1="810.8" y1="7.5" x2="810.8" y2="1274.5"/>
	<line class="st1" x1="409.2" y1="7.5" x2="409.2" y2="1274.5"/>
</g>
<g id="Capa_1">
	<g>
		<path class="st2" d="M328.8,193.5c-82.2,0-164.3,0-246.5,0c-14.5,58-29,116-43.5,174c111.2,0,222.3,0,333.5,0
			C357.8,309.5,343.2,251.5,328.8,193.5z"/>
	</g>
	<rect x="78" y="177" class="st3" width="254" height="16"/>
	<rect x="83.5" y="25.5" class="st2" width="244" height="147"/>
	<g>
		<g>
			<g class="st4">
				<defs>
					<rect id="SVGID_1_" x="423.1" y="195.1" class="st4" width="352.7" height="144.8"/>
				</defs>
				<clipPath id="SVGID_2_">
					<use xlink:href="#SVGID_1_"  style="overflow:visible;"/>
				</clipPath>
				<g class="st5">
					<g>
						<g>
							<g>
								<path d="M442.4,328.4l39.8-121.8h234.8l39.8,121.8H442.4 M728.6,195.1H470.4l-47.2,144.8h352.7L728.6,195.1"/>
							</g>
						</g>
					</g>
				</g>
			</g>
		</g>
	</g>
	<rect x="472" y="178" class="st3" width="254" height="16"/>
	<rect x="477.5" y="26.5" class="st2" width="244" height="147"/>
	<g>
		<g>
			<g class="st4">
				<defs>
					<rect id="SVGID_3_" x="838.1" y="195.1" class="st4" width="352.7" height="110.9"/>
				</defs>
				<clipPath id="SVGID_4_">
					<use xlink:href="#SVGID_3_"  style="overflow:visible;"/>
				</clipPath>
				<g class="st6">
					<g>
						<g>
							<g>
								<g>
									<defs>
										<polyline id="SVGID_5_" points="838.1,306 838.1,195.1 1190.9,195.1 1190.9,306 838.1,306 										"/>
									</defs>
									<clipPath id="SVGID_6_">
										<use xlink:href="#SVGID_5_"  style="overflow:visible;"/>
									</clipPath>
									<path class="st7" d="M857.4,297.2l39.8-93.3h234.8l39.8,93.3H857.4 M1143.6,195.1H885.4L838.1,306h352.7L1143.6,195.1"/>
								</g>
							</g>
						</g>
					</g>
				</g>
			</g>
		</g>
	</g>
	<rect x="887" y="178" class="st3" width="254" height="16"/>
	<rect x="892.5" y="26.5" class="st2" width="244" height="147"/>
	<g>
		<g>
			<g class="st4">
				<defs>
					<rect id="SVGID_7_" x="1237.1" y="193" class="st4" width="352.7" height="85"/>
				</defs>
				<clipPath id="SVGID_8_">
					<use xlink:href="#SVGID_7_"  style="overflow:visible;"/>
				</clipPath>
				<g class="st8">
					<g>
						<g>
							<g>
								<g>
									<defs>
										<polyline id="SVGID_9_" points="1237.1,278 1237.1,193 1589.9,193 1589.9,278 1237.1,278 										"/>
									</defs>
									<clipPath id="SVGID_10_">
										<use xlink:href="#SVGID_9_"  style="overflow:visible;"/>
									</clipPath>
									<g class="st9">
										<defs>
											<polyline id="SVGID_11_" points="1237.1,278 1237.1,193 1589.9,193 1589.9,278 1237.1,278 											"/>
										</defs>
										<clipPath id="SVGID_12_">
											<use xlink:href="#SVGID_11_"  style="overflow:visible;"/>
										</clipPath>
										<path class="st10" d="M1256.4,271.2l39.8-71.5h234.8l39.7,71.5H1256.4 M1542.6,193h-258.2l-47.2,85h352.7L1542.6,193"/>
									</g>
								</g>
							</g>
						</g>
					</g>
				</g>
			</g>
		</g>
	</g>
	<rect x="1286" y="177" class="st3" width="254" height="16"/>
	<rect x="1291.5" y="25.5" class="st2" width="244" height="147"/>
	<g>
		<g>
			<g class="st4">
				<defs>
					<rect id="SVGID_13_" x="1639.1" y="194" class="st4" width="352.7" height="65.1"/>
				</defs>
				<clipPath id="SVGID_14_">
					<use xlink:href="#SVGID_13_"  style="overflow:visible;"/>
				</clipPath>
				<g class="st11">
					<g>
						<g>
							<g>
								<g>
									<defs>
										<polyline id="SVGID_15_" points="1639.1,259 1639.1,194 1991.9,194 1991.9,259 1639.1,259 										"/>
									</defs>
									<clipPath id="SVGID_16_">
										<use xlink:href="#SVGID_15_"  style="overflow:visible;"/>
									</clipPath>
									<g class="st12">
										<defs>
											<polyline id="SVGID_17_" points="1639.1,259 1639.1,194 1991.9,194 1991.9,259 1639.1,259 											"/>
										</defs>
										<clipPath id="SVGID_18_">
											<use xlink:href="#SVGID_17_"  style="overflow:visible;"/>
										</clipPath>
										<g class="st13">
											<defs>
												<polyline id="SVGID_19_" points="1639.1,259 1639.1,194 1991.9,194 1991.9,259 1639.1,259 												"/>
											</defs>
											<clipPath id="SVGID_20_">
												<use xlink:href="#SVGID_19_"  style="overflow:visible;"/>
											</clipPath>
											<path class="st14" d="M1658.4,253.9l39.8-54.7h234.8l39.8,54.7H1658.4 M1944.6,194h-258.2l-47.2,65.1h352.7L1944.6,194"
												/>
										</g>
									</g>
								</g>
							</g>
						</g>
					</g>
				</g>
			</g>
		</g>
	</g>
	<rect x="1688" y="177" class="st3" width="254" height="16"/>
	<rect x="1693.5" y="25.5" class="st2" width="244" height="147"/>
	<g>
		<g>
			<g class="st4">
				<defs>
					<rect id="SVGID_21_" x="20.1" y="605.4" class="st4" width="352.7" height="38.2"/>
				</defs>
				<clipPath id="SVGID_22_">
					<use xlink:href="#SVGID_21_"  style="overflow:visible;"/>
				</clipPath>
				<g class="st15">
					<g>
						<g>
							<g>
								<g>
									<defs>
										<polyline id="SVGID_23_" points="20.1,643.6 20.1,605.4 372.9,605.4 372.9,643.6 20.1,643.6 										"/>
									</defs>
									<clipPath id="SVGID_24_">
										<use xlink:href="#SVGID_23_"  style="overflow:visible;"/>
									</clipPath>
									<g class="st16">
										<defs>
											<polyline id="SVGID_25_" points="20.1,643.6 20.1,605.4 372.9,605.4 372.9,643.6 20.1,643.6 											"/>
										</defs>
										<clipPath id="SVGID_26_">
											<use xlink:href="#SVGID_25_"  style="overflow:visible;"/>
										</clipPath>
										<g class="st17">
											<defs>
												<polyline id="SVGID_27_" points="20.1,643.6 20.1,605.4 372.9,605.4 372.9,643.6 20.1,643.6 												"/>
											</defs>
											<clipPath id="SVGID_28_">
												<use xlink:href="#SVGID_27_"  style="overflow:visible;"/>
											</clipPath>
											<g class="st18">
												<defs>
													<polyline id="SVGID_29_" points="20.1,643.6 20.1,605.4 372.9,605.4 372.9,643.6 20.1,643.6 													"/>
												</defs>
												<clipPath id="SVGID_30_">
													<use xlink:href="#SVGID_29_"  style="overflow:visible;"/>
												</clipPath>
												<g class="st19">
													<defs>
														<polyline id="SVGID_31_" points="20.1,643.6 20.1,605.4 372.9,605.4 372.9,643.6 20.1,643.6 														"/>
													</defs>
													<clipPath id="SVGID_32_">
														<use xlink:href="#SVGID_31_"  style="overflow:visible;"/>
													</clipPath>
													<path class="st20" d="M39.4,640.6l39.8-32.1h234.8l39.8,32.1H39.4 M325.6,605.4H67.4l-47.2,38.2h352.7L325.6,605.4"/>
												</g>
											</g>
										</g>
									</g>
								</g>
							</g>
						</g>
					</g>
				</g>
			</g>
		</g>
	</g>
	<rect x="68.9" y="591.3" class="st3" width="254.5" height="15.9"/>
	<rect x="74.5" y="439.5" class="st2" width="244" height="147"/>
	<g>
		<g>
			<g class="st4">
				<defs>
					<rect id="SVGID_33_" x="434.1" y="606.9" class="st4" width="352.7" height="29.3"/>
				</defs>
				<clipPath id="SVGID_34_">
					<use xlink:href="#SVGID_33_"  style="overflow:visible;"/>
				</clipPath>
				<g class="st21">
					<g>
						<g>
							<g>
								<g>
									<defs>
										<polyline id="SVGID_35_" points="434.1,636.1 434.1,606.9 786.9,606.9 786.9,636.1 434.1,636.1 										"/>
									</defs>
									<clipPath id="SVGID_36_">
										<use xlink:href="#SVGID_35_"  style="overflow:visible;"/>
									</clipPath>
									<g class="st22">
										<defs>
											<polyline id="SVGID_37_" points="434.1,636.1 434.1,606.9 786.9,606.9 786.9,636.1 434.1,636.1 											"/>
										</defs>
										<clipPath id="SVGID_38_">
											<use xlink:href="#SVGID_37_"  style="overflow:visible;"/>
										</clipPath>
										<g class="st23">
											<defs>
												<polyline id="SVGID_39_" points="434.1,636.1 434.1,606.9 786.9,606.9 786.9,636.1 434.1,636.1 												"/>
											</defs>
											<clipPath id="SVGID_40_">
												<use xlink:href="#SVGID_39_"  style="overflow:visible;"/>
											</clipPath>
											<g class="st24">
												<defs>
													<polyline id="SVGID_41_" points="434.1,636.1 434.1,606.9 786.9,606.9 786.9,636.1 434.1,636.1 													"/>
												</defs>
												<clipPath id="SVGID_42_">
													<use xlink:href="#SVGID_41_"  style="overflow:visible;"/>
												</clipPath>
												<g class="st25">
													<defs>
														<polyline id="SVGID_43_" points="434.1,636.1 434.1,606.9 786.9,606.9 786.9,636.1 434.1,636.1 														"/>
													</defs>
													<clipPath id="SVGID_44_">
														<use xlink:href="#SVGID_43_"  style="overflow:visible;"/>
													</clipPath>
													<g class="st26">
														<defs>
															<polyline id="SVGID_45_" points="434.1,636.1 434.1,606.9 786.9,606.9 786.9,636.1 434.1,636.1 															"/>
														</defs>
														<clipPath id="SVGID_46_">
															<use xlink:href="#SVGID_45_"  style="overflow:visible;"/>
														</clipPath>
														<path class="st27" d="M453.4,633.8l39.8-24.6h234.8l39.8,24.6H453.4 M739.6,606.9H481.4l-47.2,29.3h352.7L739.6,606.9
															"/>
													</g>
												</g>
											</g>
										</g>
									</g>
								</g>
							</g>
						</g>
					</g>
				</g>
			</g>
		</g>
	</g>
	<rect x="482.9" y="591.3" class="st3" width="254.5" height="15.9"/>
	<rect x="488.5" y="439.5" class="st2" width="244" height="147"/>
	<g>
		<g>
			<g class="st4">
				<defs>
					<rect id="SVGID_47_" x="830.1" y="610.3" class="st4" width="352.7" height="22.4"/>
				</defs>
				<clipPath id="SVGID_48_">
					<use xlink:href="#SVGID_47_"  style="overflow:visible;"/>
				</clipPath>
				<g class="st28">
					<g>
						<g>
							<g>
								<g>
									<defs>
										<polyline id="SVGID_49_" points="830.1,632.7 830.1,610.3 1182.9,610.3 1182.9,632.7 830.1,632.7 										"/>
									</defs>
									<clipPath id="SVGID_50_">
										<use xlink:href="#SVGID_49_"  style="overflow:visible;"/>
									</clipPath>
									<g class="st29">
										<defs>
											<polyline id="SVGID_51_" points="830.1,632.7 830.1,610.3 1182.9,610.3 1182.9,632.7 830.1,632.7 											"/>
										</defs>
										<clipPath id="SVGID_52_">
											<use xlink:href="#SVGID_51_"  style="overflow:visible;"/>
										</clipPath>
										<g class="st30">
											<defs>
												<polyline id="SVGID_53_" points="830.1,632.7 830.1,610.3 1182.9,610.3 1182.9,632.7 830.1,632.7 												"/>
											</defs>
											<clipPath id="SVGID_54_">
												<use xlink:href="#SVGID_53_"  style="overflow:visible;"/>
											</clipPath>
											<g class="st31">
												<defs>
													<polyline id="SVGID_55_" points="830.1,632.7 830.1,610.3 1182.9,610.3 1182.9,632.7 830.1,632.7 													"/>
												</defs>
												<clipPath id="SVGID_56_">
													<use xlink:href="#SVGID_55_"  style="overflow:visible;"/>
												</clipPath>
												<g class="st32">
													<defs>
														<polyline id="SVGID_57_" points="830.1,632.7 830.1,610.3 1182.9,610.3 1182.9,632.7 830.1,632.7 														"/>
													</defs>
													<clipPath id="SVGID_58_">
														<use xlink:href="#SVGID_57_"  style="overflow:visible;"/>
													</clipPath>
													<g class="st33">
														<defs>
															<polyline id="SVGID_59_" points="830.1,632.7 830.1,610.3 1182.9,610.3 1182.9,632.7 830.1,632.7 															"/>
														</defs>
														<clipPath id="SVGID_60_">
															<use xlink:href="#SVGID_59_"  style="overflow:visible;"/>
														</clipPath>
														<g class="st34">
															<defs>
																<polyline id="SVGID_61_" points="830.1,632.7 830.1,610.3 1182.9,610.3 1182.9,632.7 830.1,632.7 																
																	"/>
															</defs>
															<clipPath id="SVGID_62_">
																<use xlink:href="#SVGID_61_"  style="overflow:visible;"/>
															</clipPath>
															<path class="st35" d="M849.4,630.9l39.8-18.9h234.8l39.8,18.9H849.4 M1135.6,610.3H877.4l-47.2,22.4h352.7
																L1135.6,610.3"/>
														</g>
													</g>
												</g>
											</g>
										</g>
									</g>
								</g>
							</g>
						</g>
					</g>
				</g>
			</g>
		</g>
	</g>
	<rect x="878.9" y="593.3" class="st3" width="254.5" height="15.9"/>
	<rect x="884.5" y="441.5" class="st2" width="244" height="147"/>
	<g>
		<g>
			<g class="st4">
				<defs>
					<rect id="SVGID_63_" x="1243.1" y="606.9" class="st4" width="352.7" height="17.2"/>
				</defs>
				<clipPath id="SVGID_64_">
					<use xlink:href="#SVGID_63_"  style="overflow:visible;"/>
				</clipPath>
				<g class="st36">
					<g>
						<g>
							<g>
								<g>
									<defs>
										<polyline id="SVGID_65_" points="1243.1,624.1 1243.1,606.9 1595.9,606.9 1595.9,624.1 1243.1,624.1 										"/>
									</defs>
									<clipPath id="SVGID_66_">
										<use xlink:href="#SVGID_65_"  style="overflow:visible;"/>
									</clipPath>
									<g class="st37">
										<defs>
											<polyline id="SVGID_67_" points="1243.1,624.1 1243.1,606.9 1595.9,606.9 1595.9,624.1 1243.1,624.1 											"/>
										</defs>
										<clipPath id="SVGID_68_">
											<use xlink:href="#SVGID_67_"  style="overflow:visible;"/>
										</clipPath>
										<g class="st38">
											<defs>
												<polyline id="SVGID_69_" points="1243.1,624.1 1243.1,606.9 1595.9,606.9 1595.9,624.1 1243.1,624.1 												"/>
											</defs>
											<clipPath id="SVGID_70_">
												<use xlink:href="#SVGID_69_"  style="overflow:visible;"/>
											</clipPath>
											<g class="st39">
												<defs>
													<polyline id="SVGID_71_" points="1243.1,624.1 1243.1,606.9 1595.9,606.9 1595.9,624.1 1243.1,624.1 													"/>
												</defs>
												<clipPath id="SVGID_72_">
													<use xlink:href="#SVGID_71_"  style="overflow:visible;"/>
												</clipPath>
												<g class="st40">
													<defs>
														<polyline id="SVGID_73_" points="1243.1,624.1 1243.1,606.9 1595.9,606.9 1595.9,624.1 1243.1,624.1 														
															"/>
													</defs>
													<clipPath id="SVGID_74_">
														<use xlink:href="#SVGID_73_"  style="overflow:visible;"/>
													</clipPath>
													<g class="st41">
														<defs>
															<polyline id="SVGID_75_" points="1243.1,624.1 1243.1,606.9 1595.9,606.9 1595.9,624.1 1243.1,624.1 															
																"/>
														</defs>
														<clipPath id="SVGID_76_">
															<use xlink:href="#SVGID_75_"  style="overflow:visible;"/>
														</clipPath>
														<g class="st42">
															<defs>
																<polyline id="SVGID_77_" points="1243.1,624.1 1243.1,606.9 1595.9,606.9 1595.9,624.1 1243.1,624.1 
																																	"/>
															</defs>
															<clipPath id="SVGID_78_">
																<use xlink:href="#SVGID_77_"  style="overflow:visible;"/>
															</clipPath>
															<g class="st43">
																<defs>
																	<polyline id="SVGID_79_" points="1243.1,624.1 1243.1,606.9 1595.9,606.9 1595.9,624.1 1243.1,624.1 
																																			"/>
																</defs>
																<clipPath id="SVGID_80_">
																	<use xlink:href="#SVGID_79_"  style="overflow:visible;"/>
																</clipPath>
																<path class="st44" d="M1262.4,622.7l39.8-14.4h234.8l39.8,14.4H1262.4 M1548.6,606.9h-258.2l-47.2,17.2h352.7
																	L1548.6,606.9"/>
															</g>
														</g>
													</g>
												</g>
											</g>
										</g>
									</g>
								</g>
							</g>
						</g>
					</g>
				</g>
			</g>
		</g>
	</g>
	<rect x="1291.9" y="593.3" class="st3" width="254.5" height="15.9"/>
	<rect x="1297.5" y="441.5" class="st2" width="244" height="147"/>
</g>
</svg>
